<svg width="25" height="23" viewBox="0 0 25 23" fill="none" xmlns="http://www.w3.org/2000/svg">
<path d="M22.6562 0.278198H2.34375C1.0498 0.278198 0 1.35242 0 2.67645V20.2637C0 21.5877 1.0498 22.6619 2.34375 22.6619H22.6562C23.9502 22.6619 25 21.5877 25 20.2637V2.67645C25 1.35242 23.9502 0.278198 22.6562 0.278198ZM18.5742 14.7926C18.8086 15.0325 18.8086 15.4222 18.5742 15.662L16.5967 17.6855C16.3623 17.9254 15.9814 17.9254 15.7471 17.6855L12.5 14.333L9.25293 17.6855C9.01855 17.9254 8.6377 17.9254 8.40332 17.6855L6.42578 15.662C6.19141 15.4222 6.19141 15.0325 6.42578 14.7926L9.70215 11.4701L6.42578 8.14747C6.19141 7.90765 6.19141 7.51793 6.42578 7.27811L8.40332 5.25458C8.6377 5.01475 9.01855 5.01475 9.25293 5.25458L12.5 8.60714L15.7471 5.25458C15.9814 5.01475 16.3623 5.01475 16.5967 5.25458L18.5742 7.27811C18.8086 7.51793 18.8086 7.90765 18.5742 8.14747L15.2979 11.4701L18.5742 14.7926Z" fill="#FF0000" fill-opacity="0.78"/>
</svg>
