<svg width="25" height="18" viewBox="0 0 25 18" fill="none" xmlns="http://www.w3.org/2000/svg">
<path d="M24.5656 6.97852L19.3121 0.674609C19.1361 0.463502 18.9159 0.293651 18.667 0.177075C18.4182 0.0604987 18.1467 4.77869e-05 17.8719 0H1.25C0.559766 0 0 0.559766 0 1.25V12.5C0 13.1902 0.559766 13.75 1.25 13.75H2.5C2.5 15.8211 4.17891 17.5 6.25 17.5C8.32109 17.5 10 15.8211 10 13.75H15C15 15.8211 16.6789 17.5 18.75 17.5C20.8211 17.5 22.5 15.8211 22.5 13.75H23.75C24.4402 13.75 25 13.1902 25 12.5V8.17891C25 7.74023 24.8461 7.31562 24.5656 6.97852ZM2.5 6.25V2.5H6.25V6.25H2.5ZM6.25 15.625C5.21445 15.625 4.375 14.7855 4.375 13.75C4.375 12.7145 5.21445 11.875 6.25 11.875C7.28555 11.875 8.125 12.7145 8.125 13.75C8.125 14.7855 7.28555 15.625 6.25 15.625ZM12.5 6.25H8.75V2.5H12.5V6.25ZM18.75 15.625C17.7145 15.625 16.875 14.7855 16.875 13.75C16.875 12.7145 17.7145 11.875 18.75 11.875C19.7855 11.875 20.625 12.7145 20.625 13.75C20.625 14.7855 19.7855 15.625 18.75 15.625ZM15 6.25V2.5H17.5789L20.7039 6.25H15Z" fill="#101010"/>
</svg>
