<svg width="8" height="25" viewBox="0 0 8 25" fill="none" xmlns="http://www.w3.org/2000/svg">
<path d="M3.51599 8.66094C5.45899 8.66094 7.03198 10.2454 7.03198 12.204C7.03198 14.1626 5.45899 15.7471 3.51599 15.7471C1.57299 15.7471 0 14.1626 0 12.204C0 10.2454 1.57299 8.66094 3.51599 8.66094ZM0 3.54307C0 5.50165 1.57299 7.08624 3.51599 7.08624C5.45899 7.08624 7.03198 5.50165 7.03198 3.54307C7.03198 1.58459 5.45899 0 3.51599 0C1.57299 0 0 1.58459 0 3.54307ZM0 20.8649C0 22.8234 1.57299 24.408 3.51599 24.408C5.45899 24.408 7.03198 22.8234 7.03198 20.8649C7.03198 18.9064 5.45899 17.3218 3.51599 17.3218C1.57299 17.3218 0 18.9064 0 20.8649Z" fill="black"/>
</svg>
